<?xml version="1.0" encoding="UTF-8"?>
<svg id="Apple" xmlns="http://www.w3.org/2000/svg" width="64" height="64" viewBox="0 0 64 64">
  <g>
    <g id="Leaves">
      <path d="M31.636,14.218c-.066-.506.017-1.015.232-1.477.969-2.082,4.175-7.751,10.562-8.263h1.183c1.408,0,2.589,1.091,2.66,2.498.03.584-.032,1.298-.238,2.172-.689,2.917-2.632,5.86-3.628,7.233-.372.513-.911.873-1.527,1.022l-5.678,1.376c-1.54.373-3.063-.673-3.266-2.245l-.3-2.315Z" fill="none" stroke="#1d1d1b" stroke-width="7"/>
      <path d="M31.636,14.218c-.066-.506.017-1.015.232-1.477.969-2.082,4.175-7.751,10.562-8.263h1.183c1.408,0,2.589,1.091,2.66,2.498.03.584-.032,1.298-.238,2.172-.689,2.917-2.632,5.86-3.628,7.233-.372.513-.911.873-1.527,1.022l-5.678,1.376c-1.54.373-3.063-.673-3.266-2.245l-.3-2.315Z" fill="none" stroke="#1d1d1b" stroke-width="7"/>
    </g>
    <g id="Stick">
      <path d="M27.644,17.067c-.327-.532-2.423-3.874-4.212-5.045-.359-.235-.583-.62-.583-1.049h0c0-.464.257-.889.668-1.104l4.824-2.529s1.089-.411,1.645.823c0,0,2.661,4.089,2.831,10.113l-3.002.471c-.434.068-.871-.097-1.152-.435l-.917-1.104c-.038-.046-.07-.091-.102-.142Z" fill="none" stroke="#1d1d1b" stroke-width="7"/>
      <path d="M27.644,17.067c-.327-.532-2.423-3.874-4.212-5.045-.359-.235-.583-.62-.583-1.049h0c0-.464.257-.889.668-1.104l4.824-2.529s1.089-.411,1.645.823c0,0,2.661,4.089,2.831,10.113l-3.002.471c-.434.068-.871-.097-1.152-.435l-.917-1.104c-.038-.046-.07-.091-.102-.142Z" fill="none" stroke="#1d1d1b" stroke-width="7"/>
    </g>
    <g id="Apple-2" data-name="Apple">
      <path d="M55.805,29.006c-2.355-12.903-12.161-13.315-15.161-13.386-1.585-.038-4.028.909-5.546,1.68-.961.488-2.02.737-3.098.737h0s0,0,0,0c-1.078,0-2.137-.249-3.098-.737-1.518-.771-3.962-1.718-5.546-1.68-3,.071-12.806.482-15.161,13.386-1.488,8.156,1,16.903,5.645,22.903,4.512,5.827,12.127,7.182,16.019,7.58l.682.033h1.46s1.46,0,1.46,0l.682-.033c3.892-.398,11.507-1.753,16.019-7.58,4.645-6,7.134-14.748,5.645-22.903Z" fill="none" stroke="#1d1d1b" stroke-width="7"/>
      <path d="M55.805,29.006c-2.355-12.903-12.161-13.315-15.161-13.386-1.585-.038-4.028.909-5.546,1.68-.961.488-2.02.737-3.098.737h0s0,0,0,0c-1.078,0-2.137-.249-3.098-.737-1.518-.771-3.962-1.718-5.546-1.68-3,.071-12.806.482-15.161,13.386-1.488,8.156,1,16.903,5.645,22.903,4.512,5.827,12.127,7.182,16.019,7.58l.682.033h1.46s1.46,0,1.46,0l.682-.033c3.892-.398,11.507-1.753,16.019-7.58,4.645-6,7.134-14.748,5.645-22.903Z" fill="none" stroke="#1d1d1b" stroke-width="7"/>
    </g>
    <g id="Shadow">
      <path d="M50.159,51.91c-4.51,5.83-12.13,7.18-16.02,7.58-.23.01-.45.02-.68.03h-2.92c-.23-.01-.45-.02-.68-.03-3.89-.4-11.51-1.75-16.02-7.58-.2-.25-.39-.51-.56-.77,4.27,2.98,9.4,3.84,12.37,4.14.23.01.45.02.68.03h2.92c.23-.01.45-.02.68-.03,3.89-.4,11.51-1.75,16.02-7.58,4.65-6,7.13-14.75,5.65-22.9-.53-2.92-1.45-5.2-2.58-6.98,2.92,1.81,5.68,5.12,6.79,11.19,1.48,8.15-1,16.9-5.65,22.9Z" fill="none" stroke="#1d1d1b" stroke-width="7"/>
      <path d="M50.159,51.91c-4.51,5.83-12.13,7.18-16.02,7.58-.23.01-.45.02-.68.03h-2.92c-.23-.01-.45-.02-.68-.03-3.89-.4-11.51-1.75-16.02-7.58-.2-.25-.39-.51-.56-.77,4.27,2.98,9.4,3.84,12.37,4.14.23.01.45.02.68.03h2.92c.23-.01.45-.02.68-.03,3.89-.4,11.51-1.75,16.02-7.58,4.65-6,7.13-14.75,5.65-22.9-.53-2.92-1.45-5.2-2.58-6.98,2.92,1.81,5.68,5.12,6.79,11.19,1.48,8.15-1,16.9-5.65,22.9Z" fill="none" stroke="#1d1d1b" stroke-width="7"/>
    </g>
    <path id="Highlight" d="M15.924,21.27c-.907.807-3.474,3.4-2.656,6.277.443,1.558,1.918,2.661,3.537,2.627,1.345-.028,3.142-.572,4.94-2.646,0,0,2.647-2.699,1.518-5.504-.301-.748-.836-1.402-1.543-1.79-.979-.538-2.713-.912-5.236.618-.199.121-.386.262-.56.418Z" fill="none" stroke="#1d1d1b" stroke-width="7"/>
  </g>
  <g>
    <g id="Leaves-2" data-name="Leaves">
      <path d="M31.636,14.218c-.066-.506.017-1.015.232-1.477.969-2.082,4.175-7.751,10.562-8.263h1.183c1.408,0,2.589,1.091,2.66,2.498.03.584-.032,1.298-.238,2.172-.689,2.917-2.632,5.86-3.628,7.233-.372.513-.911.873-1.527,1.022l-5.678,1.376c-1.54.373-3.063-.673-3.266-2.245l-.3-2.315Z" fill="#39b54a"/>
    </g>
    <g id="Stick-2" data-name="Stick">
      <path d="M27.644,17.067c-.327-.532-2.423-3.874-4.212-5.045-.359-.235-.583-.62-.583-1.049h0c0-.464.257-.889.668-1.104l4.824-2.529s1.089-.411,1.645.823c0,0,2.661,4.089,2.831,10.113l-3.002.471c-.434.068-.871-.097-1.152-.435l-.917-1.104c-.038-.046-.07-.091-.102-.142Z" fill="#9c3d29"/>
    </g>
    <g id="Apple-3" data-name="Apple">
      <path d="M55.805,29.006c-2.355-12.903-12.161-13.315-15.161-13.386-1.585-.038-4.028.909-5.546,1.68-.961.488-2.02.737-3.098.737h0s0,0,0,0c-1.078,0-2.137-.249-3.098-.737-1.518-.771-3.962-1.718-5.546-1.68-3,.071-12.806.482-15.161,13.386-1.488,8.156,1,16.903,5.645,22.903,4.512,5.827,12.127,7.182,16.019,7.58l.682.033h1.46s1.46,0,1.46,0l.682-.033c3.892-.398,11.507-1.753,16.019-7.58,4.645-6,7.134-14.748,5.645-22.903Z" fill="#e62e49"/>
    </g>
    <g id="Shadow-2" data-name="Shadow">
      <path d="M50.159,51.91c-4.51,5.83-12.13,7.18-16.02,7.58-.23.01-.45.02-.68.03h-2.92c-.23-.01-.45-.02-.68-.03-3.89-.4-11.51-1.75-16.02-7.58-.2-.25-.39-.51-.56-.77,4.27,2.98,9.4,3.84,12.37,4.14.23.01.45.02.68.03h2.92c.23-.01.45-.02.68-.03,3.89-.4,11.51-1.75,16.02-7.58,4.65-6,7.13-14.75,5.65-22.9-.53-2.92-1.45-5.2-2.58-6.98,2.92,1.81,5.68,5.12,6.79,11.19,1.48,8.15-1,16.9-5.65,22.9Z" fill="#bc2949"/>
    </g>
    <path id="Highlight-2" data-name="Highlight" d="M15.924,21.27c-.907.807-3.474,3.4-2.656,6.277.443,1.558,1.918,2.661,3.537,2.627,1.345-.028,3.142-.572,4.94-2.646,0,0,2.647-2.699,1.518-5.504-.301-.748-.836-1.402-1.543-1.79-.979-.538-2.713-.912-5.236.618-.199.121-.386.262-.56.418Z" fill="#fff"/>
  </g>
</svg>