<?xml version="1.0" encoding="UTF-8"?>
<svg id="Carrot" xmlns="http://www.w3.org/2000/svg" width="64" height="64" viewBox="0 0 64 64">
  <g>
    <g>
      <path id="Leaf" d="M41.12,5.977c-.031,1.581-.527,7.063-5.614,12.039-.097.095-.083.255.035.323,1.596.912,10.923,6.238,12.124,6.924.077.044.171.031.237-.028.622-.553,3.827-3.186,8.17-2.825.252.021.403-.274.221-.45-.932-.903-3.072-2.528-5.567-1.457-.172.074-.344-.11-.258-.276.691-1.341,2.975-4.748,8.122-4.172.171.019.297-.158.203-.302-.779-1.189-3.835-4.741-10.809-.998-.161.087-.35-.052-.296-.227.354-1.15,1.031-4.24-.324-8.142-.064-.184-.331-.184-.393,0-.426,1.276-1.532,4.315-2.611,5.07-.121.085-.286.031-.322-.113-.226-.901-1.089-4.011-2.581-5.51-.123-.123-.335-.031-.339.143Z" fill="none" stroke="#1d1d1b" stroke-width="7"/>
      <g>
        <path d="M47.539,21.747l-2.709-2.868-.316-.316-2.868-2.709c-1.166-1.102-2.726-1.713-4.328-1.625-3.392.187-9.207,2.475-15.804,13.511-.06.101-.125.202-.192.298l-14.683,21.236c-.31.449-.556.934-.734,1.45-.529,1.529-1.36,4.695.044,6.357.167.161.341.314.503.481,1.696,1.241,4.729.437,6.215-.077.516-.178,1.001-.424,1.45-.734l21.236-14.683c.096-.067.198-.132.298-.192,11.036-6.597,13.324-12.412,13.511-15.804.088-1.602-.523-3.161-1.625-4.328Z" fill="none" stroke="#1d1d1b" stroke-width="7"/>
        <path d="M47.539,21.747l-2.709-2.868-.316-.316-2.868-2.709c-1.166-1.102-2.726-1.713-4.328-1.625-3.392.187-9.207,2.475-15.804,13.511-.06.101-.125.202-.192.298l-14.683,21.236c-.31.449-.556.934-.734,1.45-.529,1.529-1.36,4.695.044,6.357.167.161.341.314.503.481,1.696,1.241,4.729.437,6.215-.077.516-.178,1.001-.424,1.45-.734l21.236-14.683c.096-.067.198-.132.298-.192,11.036-6.597,13.324-12.412,13.511-15.804.088-1.602-.523-3.161-1.625-4.328Z" fill="none" stroke="#1d1d1b" stroke-width="7"/>
      </g>
    </g>
    <g>
      <path id="Leaf-2" data-name="Leaf" d="M41.12,5.977c-.031,1.581-.527,7.063-5.614,12.039-.097.095-.083.255.035.323,1.596.912,10.923,6.238,12.124,6.924.077.044.171.031.237-.028.622-.553,3.827-3.186,8.17-2.825.252.021.403-.274.221-.45-.932-.903-3.072-2.528-5.567-1.457-.172.074-.344-.11-.258-.276.691-1.341,2.975-4.748,8.122-4.172.171.019.297-.158.203-.302-.779-1.189-3.835-4.741-10.809-.998-.161.087-.35-.052-.296-.227.354-1.15,1.031-4.24-.324-8.142-.064-.184-.331-.184-.393,0-.426,1.276-1.532,4.315-2.611,5.07-.121.085-.286.031-.322-.113-.226-.901-1.089-4.011-2.581-5.51-.123-.123-.335-.031-.339.143Z" fill="#39b54a"/>
      <path d="M47.539,21.747l-2.709-2.868-.316-.316-2.868-2.709c-1.166-1.102-2.726-1.713-4.328-1.625-3.392.187-9.207,2.475-15.804,13.511-.06.101-.125.202-.192.298l-14.683,21.236c-.31.449-.556.934-.734,1.45-.529,1.529-1.36,4.695.044,6.357.167.161.341.314.503.481,1.696,1.241,4.729.437,6.215-.077.516-.178,1.001-.424,1.45-.734l21.236-14.683c.096-.067.198-.132.298-.192,11.036-6.597,13.324-12.412,13.511-15.804.088-1.602-.523-3.161-1.625-4.328Z" fill="#fc9504"/>
    </g>
  </g>
  <g id="Shades">
    <path d="M43.943,10.962c-.07.07-.14.13-.21.18-.12.08-.29.03-.32-.11-.21-.83-.97-3.56-2.26-5.15.06-.11.21-.14.31-.05,1.32,1.33,2.15,3.93,2.48,5.13Z" fill="#289352"/>
    <path d="M47.063,14.212c.33-1.1.97-3.96-.16-7.62.02-.08.05-.15.07-.21.06-.18.33-.18.39,0,1.25,3.6.77,6.51.42,7.84-.14.07-.28.14-.43.22-.16.08-.35-.05-.29-.23Z" fill="#289352"/>
    <path d="M56.293,21.962c.18.17.03.47-.22.45-4.34-.36-7.55,2.27-8.17,2.82-.07.06-.16.07-.24.03-.11-.06-.28-.16-.51-.29.04,0,.09-.02.12-.05.62-.56,3.83-3.19,8.17-2.83.25.02.4-.27.22-.45-.33-.33-.83-.74-1.44-1.09.91.38,1.63.98,2.07,1.41Z" fill="#289352"/>
    <path d="M58.593,16.052c-4.89-.54-7.19,2.49-8,3.96-.16.05-.32.11-.49.18-.18.07-.35-.11-.26-.28.69-1.34,2.97-4.75,8.12-4.17.17.02.3-.16.2-.3-.3-.46-.94-1.27-2.01-1.88,1.46.61,2.29,1.65,2.64,2.19.1.14-.03.32-.2.3Z" fill="#289352"/>
  </g>
  <g id="Shade">
    <path d="M47.543,21.752l-.95-1c.53.94.79,2.01.74,3.1-.082,1.464-.56,3.383-1.961,5.62l-7.179-5.226,5.56,7.433c-2.038,2.425-5.166,5.127-9.93,7.973-.1.06-.21.13-.3.2l-4.257,2.942-8.658-5.371,6.432,6.909-11.476,7.932-3.311-4.163,2.102,4.998-2.073,1.432c-.45.31-.93.55-1.45.73-.91.31-2.39.74-3.8.74-.61,0-1.21-.08-1.74-.3.13.6.39,1.15.83,1.57.69.71,1.7.95,2.76.95,1.4,0,2.88-.42,3.79-.73.51-.18,1-.43,1.45-.74l21.23-14.68c.1-.07.2-.13.3-.19,11.04-6.6,13.32-12.42,13.51-15.81.09-1.6-.52-3.16-1.62-4.32Z" fill="#f15a23"/>
    <polygon points="27.909 19.258 26.508 20.752 31.802 24.247 27.909 19.258" fill="#f15a23"/>
    <polygon points="12.364 41 11.398 42.397 14.382 46.263 12.364 41" fill="#f15a23"/>
  </g>
</svg>